<?xml version="1.0" encoding="UTF-8" standalone="no"?>
<svg
   viewBox="0 0 448 512"
   version="1.1"
   id="svg1"
   sodipodi:docname="lock.svg"
   inkscape:version="1.3 (0e150ed6c4, 2023-07-21)"
   xmlns:inkscape="http://www.inkscape.org/namespaces/inkscape"
   xmlns:sodipodi="http://sodipodi.sourceforge.net/DTD/sodipodi-0.dtd"
   xmlns="http://www.w3.org/2000/svg"
   xmlns:svg="http://www.w3.org/2000/svg">
  <defs
     id="defs1" />
  <sodipodi:namedview
     id="namedview1"
     pagecolor="#ffffff"
     bordercolor="#000000"
     borderopacity="0.25"
     inkscape:showpageshadow="2"
     inkscape:pageopacity="0.0"
     inkscape:pagecheckerboard="0"
     inkscape:deskcolor="#d1d1d1"
     inkscape:zoom="2"
     inkscape:cx="218.5"
     inkscape:cy="172.5"
     inkscape:window-width="1880"
     inkscape:window-height="1005"
     inkscape:window-x="1940"
     inkscape:window-y="55"
     inkscape:window-maximized="0"
     inkscape:current-layer="svg1" />
  <path
     fill="#888888"
     d="m 400,398 h -24 c 1.69589,-0.0346 -304,0 -304,0 H 48 C 21.5,398 0,419.5 0,446 v 18 c 0,26.5 21.5,48 48,48 h 352 c 26.5,0 48,-21.5 48,-48 v -18 c 0,-26.5 -21.5,-48 -48,-48 z m 4.5e-4,-119.42989 h -24 c 1.69589,-0.0346 -304,0 -304,0 h -24 c -26.5,0 -48.00000032107,21.5 -48.00000032107,48 v 15.55805 c 0,26.5 21.50000032107,50.44195 48.00000032107,50.44195 h 352 c 26.5,0 48,-21.5 48,-48 v -18 c 0,-26.5 -21.5,-48 -48,-48 z m 0.12728,-119.68774 h -24 c 1.69589,-0.0346 -304.000004,0 -304.000004,0 h -24 c -26.5,0 -48.00000048,21.5 -48.00000048,48 l 0,15.55805 c 0,26.5 21.50000048,50.44195 48.00000048,50.44195 H 400.12773 c 26.5,0 48,-21.5 48,-48 v -18 c 0,-26.5 -21.5,-48 -48,-48 z"
     id="path1"
     sodipodi:nodetypes="sccsssssssssccsssssssssccssssssss" />
</svg>
